<?xml version="1.0" encoding="UTF-8" standalone="no"?>
<!-- Created with Inkscape (http://www.inkscape.org/) -->

<svg
   width="1024"
   height="1024"
   viewBox="0 0 270.93332 270.93334"
   version="1.1"
   id="svg5"
   inkscape:version="1.2.2 (b0a8486541, 2022-12-01)"
   sodipodi:docname="platform.svg"
   xmlns:inkscape="http://www.inkscape.org/namespaces/inkscape"
   xmlns:sodipodi="http://sodipodi.sourceforge.net/DTD/sodipodi-0.dtd"
   xmlns="http://www.w3.org/2000/svg"
   xmlns:svg="http://www.w3.org/2000/svg">
  <sodipodi:namedview
     id="namedview7"
     pagecolor="#505050"
     bordercolor="#eeeeee"
     borderopacity="1"
     inkscape:showpageshadow="0"
     inkscape:pageopacity="0"
     inkscape:pagecheckerboard="0"
     inkscape:deskcolor="#505050"
     inkscape:document-units="px"
     showgrid="false"
     inkscape:zoom="1.1470437"
     inkscape:cx="357.87651"
     inkscape:cy="400.59503"
     inkscape:window-width="1920"
     inkscape:window-height="1011"
     inkscape:window-x="0"
     inkscape:window-y="32"
     inkscape:window-maximized="1"
     inkscape:current-layer="layer1" />
  <defs
     id="defs2">
    <inkscape:path-effect
       effect="skeletal"
       id="path-effect4037"
       is_visible="true"
       lpeversion="1"
       pattern="M 0,4.9921381 C 0,2.2364779 2.2364779,0 4.9921381,0 c 2.7556603,0 4.9921381,2.2364779 4.9921381,4.9921381 0,2.7556603 -2.2364778,4.9921381 -4.9921381,4.9921381 C 2.2364779,9.9842762 0,7.7477984 0,4.9921381 Z"
       copytype="single_stretched"
       prop_scale="0.302165"
       scale_y_rel="false"
       spacing="0"
       normal_offset="0"
       tang_offset="0"
       prop_units="false"
       vertical_pattern="false"
       hide_knot="false"
       fuse_tolerance="0" />
    <inkscape:path-effect
       effect="skeletal"
       id="path-effect4033"
       is_visible="true"
       lpeversion="1"
       pattern="M 0,4.9921381 C 0,2.2364779 2.2364779,0 4.9921381,0 c 2.7556603,0 4.9921381,2.2364779 4.9921381,4.9921381 0,2.7556603 -2.2364778,4.9921381 -4.9921381,4.9921381 C 2.2364779,9.9842762 0,7.7477984 0,4.9921381 Z"
       copytype="single_stretched"
       prop_scale="0.302165"
       scale_y_rel="false"
       spacing="0"
       normal_offset="0"
       tang_offset="0"
       prop_units="false"
       vertical_pattern="false"
       hide_knot="false"
       fuse_tolerance="0" />
    <inkscape:path-effect
       effect="skeletal"
       id="path-effect4029"
       is_visible="true"
       lpeversion="1"
       pattern="M 0,4.9921381 C 0,2.2364779 2.2364779,0 4.9921381,0 c 2.7556603,0 4.9921381,2.2364779 4.9921381,4.9921381 0,2.7556603 -2.2364778,4.9921381 -4.9921381,4.9921381 C 2.2364779,9.9842762 0,7.7477984 0,4.9921381 Z"
       copytype="single_stretched"
       prop_scale="0.302165"
       scale_y_rel="false"
       spacing="0"
       normal_offset="0"
       tang_offset="0"
       prop_units="false"
       vertical_pattern="false"
       hide_knot="false"
       fuse_tolerance="0" />
    <inkscape:path-effect
       effect="skeletal"
       id="path-effect4025"
       is_visible="true"
       lpeversion="1"
       pattern="M 0,4.9921381 C 0,2.2364779 2.2364779,0 4.9921381,0 c 2.7556603,0 4.9921381,2.2364779 4.9921381,4.9921381 0,2.7556603 -2.2364778,4.9921381 -4.9921381,4.9921381 C 2.2364779,9.9842762 0,7.7477984 0,4.9921381 Z"
       copytype="single_stretched"
       prop_scale="0.302165"
       scale_y_rel="false"
       spacing="0"
       normal_offset="0"
       tang_offset="0"
       prop_units="false"
       vertical_pattern="false"
       hide_knot="false"
       fuse_tolerance="0" />
    <inkscape:path-effect
       effect="skeletal"
       id="path-effect2517"
       is_visible="true"
       lpeversion="1"
       pattern="M 0,4.9921381 C 0,2.2364779 2.2364779,0 4.9921381,0 c 2.7556603,0 4.9921381,2.2364779 4.9921381,4.9921381 0,2.7556603 -2.2364778,4.9921381 -4.9921381,4.9921381 C 2.2364779,9.9842762 0,7.7477984 0,4.9921381 Z"
       copytype="single_stretched"
       prop_scale="0.302165"
       scale_y_rel="false"
       spacing="0"
       normal_offset="0"
       tang_offset="0"
       prop_units="false"
       vertical_pattern="false"
       hide_knot="false"
       fuse_tolerance="0" />
    <inkscape:path-effect
       effect="skeletal"
       id="path-effect2513"
       is_visible="true"
       lpeversion="1"
       pattern="M 0,4.9921381 C 0,2.2364779 2.2364779,0 4.9921381,0 c 2.7556603,0 4.9921381,2.2364779 4.9921381,4.9921381 0,2.7556603 -2.2364778,4.9921381 -4.9921381,4.9921381 C 2.2364779,9.9842762 0,7.7477984 0,4.9921381 Z"
       copytype="single_stretched"
       prop_scale="0.302165"
       scale_y_rel="false"
       spacing="0"
       normal_offset="0"
       tang_offset="0"
       prop_units="false"
       vertical_pattern="false"
       hide_knot="false"
       fuse_tolerance="0" />
    <inkscape:path-effect
       effect="skeletal"
       id="path-effect2509"
       is_visible="true"
       lpeversion="1"
       pattern="M 0,4.9921381 C 0,2.2364779 2.2364779,0 4.9921381,0 c 2.7556603,0 4.9921381,2.2364779 4.9921381,4.9921381 0,2.7556603 -2.2364778,4.9921381 -4.9921381,4.9921381 C 2.2364779,9.9842762 0,7.7477984 0,4.9921381 Z"
       copytype="single_stretched"
       prop_scale="0.302165"
       scale_y_rel="false"
       spacing="0"
       normal_offset="0"
       tang_offset="0"
       prop_units="false"
       vertical_pattern="false"
       hide_knot="false"
       fuse_tolerance="0" />
    <inkscape:path-effect
       effect="skeletal"
       id="path-effect2505"
       is_visible="true"
       lpeversion="1"
       pattern="M 0,4.9921381 C 0,2.2364779 2.2364779,0 4.9921381,0 c 2.7556603,0 4.9921381,2.2364779 4.9921381,4.9921381 0,2.7556603 -2.2364778,4.9921381 -4.9921381,4.9921381 C 2.2364779,9.9842762 0,7.7477984 0,4.9921381 Z"
       copytype="single_stretched"
       prop_scale="0.302165"
       scale_y_rel="false"
       spacing="0"
       normal_offset="0"
       tang_offset="0"
       prop_units="false"
       vertical_pattern="false"
       hide_knot="false"
       fuse_tolerance="0" />
    <inkscape:path-effect
       effect="skeletal"
       id="path-effect2501"
       is_visible="true"
       lpeversion="1"
       pattern="M 0,4.9921381 C 0,2.2364779 2.2364779,0 4.9921381,0 c 2.7556603,0 4.9921381,2.2364779 4.9921381,4.9921381 0,2.7556603 -2.2364778,4.9921381 -4.9921381,4.9921381 C 2.2364779,9.9842762 0,7.7477984 0,4.9921381 Z"
       copytype="single_stretched"
       prop_scale="0.302165"
       scale_y_rel="false"
       spacing="0"
       normal_offset="0"
       tang_offset="0"
       prop_units="false"
       vertical_pattern="false"
       hide_knot="false"
       fuse_tolerance="0" />
    <inkscape:path-effect
       effect="skeletal"
       id="path-effect2497"
       is_visible="true"
       lpeversion="1"
       pattern="M 0,4.9921381 C 0,2.2364779 2.2364779,0 4.9921381,0 c 2.7556603,0 4.9921381,2.2364779 4.9921381,4.9921381 0,2.7556603 -2.2364778,4.9921381 -4.9921381,4.9921381 C 2.2364779,9.9842762 0,7.7477984 0,4.9921381 Z"
       copytype="single_stretched"
       prop_scale="0.302165"
       scale_y_rel="false"
       spacing="0"
       normal_offset="0"
       tang_offset="0"
       prop_units="false"
       vertical_pattern="false"
       hide_knot="false"
       fuse_tolerance="0" />
    <inkscape:path-effect
       effect="skeletal"
       id="path-effect2493"
       is_visible="true"
       lpeversion="1"
       pattern="M 0,4.9921381 C 0,2.2364779 2.2364779,0 4.9921381,0 c 2.7556603,0 4.9921381,2.2364779 4.9921381,4.9921381 0,2.7556603 -2.2364778,4.9921381 -4.9921381,4.9921381 C 2.2364779,9.9842762 0,7.7477984 0,4.9921381 Z"
       copytype="single_stretched"
       prop_scale="0.302165"
       scale_y_rel="false"
       spacing="0"
       normal_offset="0"
       tang_offset="0"
       prop_units="false"
       vertical_pattern="false"
       hide_knot="false"
       fuse_tolerance="0" />
    <inkscape:path-effect
       effect="skeletal"
       id="path-effect2489"
       is_visible="true"
       lpeversion="1"
       pattern="M 0,4.9921381 C 0,2.2364779 2.2364779,0 4.9921381,0 c 2.7556603,0 4.9921381,2.2364779 4.9921381,4.9921381 0,2.7556603 -2.2364778,4.9921381 -4.9921381,4.9921381 C 2.2364779,9.9842762 0,7.7477984 0,4.9921381 Z"
       copytype="single_stretched"
       prop_scale="0.302165"
       scale_y_rel="false"
       spacing="0"
       normal_offset="0"
       tang_offset="0"
       prop_units="false"
       vertical_pattern="false"
       hide_knot="false"
       fuse_tolerance="0" />
    <inkscape:path-effect
       effect="skeletal"
       id="path-effect2485"
       is_visible="true"
       lpeversion="1"
       pattern="M 0,4.9921381 C 0,2.2364779 2.2364779,0 4.9921381,0 c 2.7556603,0 4.9921381,2.2364779 4.9921381,4.9921381 0,2.7556603 -2.2364778,4.9921381 -4.9921381,4.9921381 C 2.2364779,9.9842762 0,7.7477984 0,4.9921381 Z"
       copytype="single_stretched"
       prop_scale="0.302165"
       scale_y_rel="false"
       spacing="0"
       normal_offset="0"
       tang_offset="0"
       prop_units="false"
       vertical_pattern="false"
       hide_knot="false"
       fuse_tolerance="0" />
    <inkscape:path-effect
       effect="skeletal"
       id="path-effect2481"
       is_visible="true"
       lpeversion="1"
       pattern="M 0,4.9921381 C 0,2.2364779 2.2364779,0 4.9921381,0 c 2.7556603,0 4.9921381,2.2364779 4.9921381,4.9921381 0,2.7556603 -2.2364778,4.9921381 -4.9921381,4.9921381 C 2.2364779,9.9842762 0,7.7477984 0,4.9921381 Z"
       copytype="single_stretched"
       prop_scale="0.302165"
       scale_y_rel="false"
       spacing="0"
       normal_offset="0"
       tang_offset="0"
       prop_units="false"
       vertical_pattern="false"
       hide_knot="false"
       fuse_tolerance="0" />
    <inkscape:path-effect
       effect="skeletal"
       id="path-effect2477"
       is_visible="true"
       lpeversion="1"
       pattern="M 0,4.9921381 C 0,2.2364779 2.2364779,0 4.9921381,0 c 2.7556603,0 4.9921381,2.2364779 4.9921381,4.9921381 0,2.7556603 -2.2364778,4.9921381 -4.9921381,4.9921381 C 2.2364779,9.9842762 0,7.7477984 0,4.9921381 Z"
       copytype="single_stretched"
       prop_scale="0.302165"
       scale_y_rel="false"
       spacing="0"
       normal_offset="0"
       tang_offset="0"
       prop_units="false"
       vertical_pattern="false"
       hide_knot="false"
       fuse_tolerance="0" />
    <inkscape:path-effect
       effect="skeletal"
       id="path-effect2473"
       is_visible="true"
       lpeversion="1"
       pattern="M 0,4.9921381 C 0,2.2364779 2.2364779,0 4.9921381,0 c 2.7556603,0 4.9921381,2.2364779 4.9921381,4.9921381 0,2.7556603 -2.2364778,4.9921381 -4.9921381,4.9921381 C 2.2364779,9.9842762 0,7.7477984 0,4.9921381 Z"
       copytype="single_stretched"
       prop_scale="0.302165"
       scale_y_rel="false"
       spacing="0"
       normal_offset="0"
       tang_offset="0"
       prop_units="false"
       vertical_pattern="false"
       hide_knot="false"
       fuse_tolerance="0" />
    <inkscape:path-effect
       effect="skeletal"
       id="path-effect2469"
       is_visible="true"
       lpeversion="1"
       pattern="M 0,4.9921381 C 0,2.2364779 2.2364779,0 4.9921381,0 c 2.7556603,0 4.9921381,2.2364779 4.9921381,4.9921381 0,2.7556603 -2.2364778,4.9921381 -4.9921381,4.9921381 C 2.2364779,9.9842762 0,7.7477984 0,4.9921381 Z"
       copytype="single_stretched"
       prop_scale="0.302165"
       scale_y_rel="false"
       spacing="0"
       normal_offset="0"
       tang_offset="0"
       prop_units="false"
       vertical_pattern="false"
       hide_knot="false"
       fuse_tolerance="0" />
    <inkscape:path-effect
       effect="skeletal"
       id="path-effect2465"
       is_visible="true"
       lpeversion="1"
       pattern="M 0,4.9921381 C 0,2.2364779 2.2364779,0 4.9921381,0 c 2.7556603,0 4.9921381,2.2364779 4.9921381,4.9921381 0,2.7556603 -2.2364778,4.9921381 -4.9921381,4.9921381 C 2.2364779,9.9842762 0,7.7477984 0,4.9921381 Z"
       copytype="single_stretched"
       prop_scale="0.302165"
       scale_y_rel="false"
       spacing="0"
       normal_offset="0"
       tang_offset="0"
       prop_units="false"
       vertical_pattern="false"
       hide_knot="false"
       fuse_tolerance="0" />
    <inkscape:path-effect
       effect="skeletal"
       id="path-effect2461"
       is_visible="true"
       lpeversion="1"
       pattern="M 0,4.9921381 C 0,2.2364779 2.2364779,0 4.9921381,0 c 2.7556603,0 4.9921381,2.2364779 4.9921381,4.9921381 0,2.7556603 -2.2364778,4.9921381 -4.9921381,4.9921381 C 2.2364779,9.9842762 0,7.7477984 0,4.9921381 Z"
       copytype="single_stretched"
       prop_scale="0.302165"
       scale_y_rel="false"
       spacing="0"
       normal_offset="0"
       tang_offset="0"
       prop_units="false"
       vertical_pattern="false"
       hide_knot="false"
       fuse_tolerance="0" />
    <inkscape:path-effect
       effect="skeletal"
       id="path-effect2457"
       is_visible="true"
       lpeversion="1"
       pattern="M 0,4.9921381 C 0,2.2364779 2.2364779,0 4.9921381,0 c 2.7556603,0 4.9921381,2.2364779 4.9921381,4.9921381 0,2.7556603 -2.2364778,4.9921381 -4.9921381,4.9921381 C 2.2364779,9.9842762 0,7.7477984 0,4.9921381 Z"
       copytype="single_stretched"
       prop_scale="0.302165"
       scale_y_rel="false"
       spacing="0"
       normal_offset="0"
       tang_offset="0"
       prop_units="false"
       vertical_pattern="false"
       hide_knot="false"
       fuse_tolerance="0" />
    <inkscape:path-effect
       effect="skeletal"
       id="path-effect2453"
       is_visible="true"
       lpeversion="1"
       pattern="M 0,4.9921381 C 0,2.2364779 2.2364779,0 4.9921381,0 c 2.7556603,0 4.9921381,2.2364779 4.9921381,4.9921381 0,2.7556603 -2.2364778,4.9921381 -4.9921381,4.9921381 C 2.2364779,9.9842762 0,7.7477984 0,4.9921381 Z"
       copytype="single_stretched"
       prop_scale="0.302165"
       scale_y_rel="false"
       spacing="0"
       normal_offset="0"
       tang_offset="0"
       prop_units="false"
       vertical_pattern="false"
       hide_knot="false"
       fuse_tolerance="0" />
    <inkscape:path-effect
       effect="skeletal"
       id="path-effect2449"
       is_visible="true"
       lpeversion="1"
       pattern="M 0,4.9921381 C 0,2.2364779 2.2364779,0 4.9921381,0 c 2.7556603,0 4.9921381,2.2364779 4.9921381,4.9921381 0,2.7556603 -2.2364778,4.9921381 -4.9921381,4.9921381 C 2.2364779,9.9842762 0,7.7477984 0,4.9921381 Z"
       copytype="single_stretched"
       prop_scale="0.302165"
       scale_y_rel="false"
       spacing="0"
       normal_offset="0"
       tang_offset="0"
       prop_units="false"
       vertical_pattern="false"
       hide_knot="false"
       fuse_tolerance="0" />
    <inkscape:path-effect
       effect="skeletal"
       id="path-effect2445"
       is_visible="true"
       lpeversion="1"
       pattern="M 0,4.9921381 C 0,2.2364779 2.2364779,0 4.9921381,0 c 2.7556603,0 4.9921381,2.2364779 4.9921381,4.9921381 0,2.7556603 -2.2364778,4.9921381 -4.9921381,4.9921381 C 2.2364779,9.9842762 0,7.7477984 0,4.9921381 Z"
       copytype="single_stretched"
       prop_scale="0.302165"
       scale_y_rel="false"
       spacing="0"
       normal_offset="0"
       tang_offset="0"
       prop_units="false"
       vertical_pattern="false"
       hide_knot="false"
       fuse_tolerance="0" />
    <inkscape:path-effect
       effect="skeletal"
       id="path-effect2441"
       is_visible="true"
       lpeversion="1"
       pattern="M 0,4.9921381 C 0,2.2364779 2.2364779,0 4.9921381,0 c 2.7556603,0 4.9921381,2.2364779 4.9921381,4.9921381 0,2.7556603 -2.2364778,4.9921381 -4.9921381,4.9921381 C 2.2364779,9.9842762 0,7.7477984 0,4.9921381 Z"
       copytype="single_stretched"
       prop_scale="0.302165"
       scale_y_rel="false"
       spacing="0"
       normal_offset="0"
       tang_offset="0"
       prop_units="false"
       vertical_pattern="false"
       hide_knot="false"
       fuse_tolerance="0" />
    <inkscape:path-effect
       effect="skeletal"
       id="path-effect2437"
       is_visible="true"
       lpeversion="1"
       pattern="M 0,4.9921381 C 0,2.2364779 2.2364779,0 4.9921381,0 c 2.7556603,0 4.9921381,2.2364779 4.9921381,4.9921381 0,2.7556603 -2.2364778,4.9921381 -4.9921381,4.9921381 C 2.2364779,9.9842762 0,7.7477984 0,4.9921381 Z"
       copytype="single_stretched"
       prop_scale="0.302165"
       scale_y_rel="false"
       spacing="0"
       normal_offset="0"
       tang_offset="0"
       prop_units="false"
       vertical_pattern="false"
       hide_knot="false"
       fuse_tolerance="0" />
    <inkscape:path-effect
       effect="skeletal"
       id="path-effect2417"
       is_visible="true"
       lpeversion="1"
       pattern="M 0,4.9921381 C 0,2.2364779 2.2364779,0 4.9921381,0 c 2.7556603,0 4.9921381,2.2364779 4.9921381,4.9921381 0,2.7556603 -2.2364778,4.9921381 -4.9921381,4.9921381 C 2.2364779,9.9842762 0,7.7477984 0,4.9921381 Z"
       copytype="single_stretched"
       prop_scale="0.302165"
       scale_y_rel="false"
       spacing="0"
       normal_offset="0"
       tang_offset="0"
       prop_units="false"
       vertical_pattern="false"
       hide_knot="false"
       fuse_tolerance="0" />
    <inkscape:path-effect
       effect="skeletal"
       id="path-effect2413"
       is_visible="true"
       lpeversion="1"
       pattern="M 0,4.9921381 C 0,2.2364779 2.2364779,0 4.9921381,0 c 2.7556603,0 4.9921381,2.2364779 4.9921381,4.9921381 0,2.7556603 -2.2364778,4.9921381 -4.9921381,4.9921381 C 2.2364779,9.9842762 0,7.7477984 0,4.9921381 Z"
       copytype="single_stretched"
       prop_scale="0.302165"
       scale_y_rel="false"
       spacing="0"
       normal_offset="0"
       tang_offset="0"
       prop_units="false"
       vertical_pattern="false"
       hide_knot="false"
       fuse_tolerance="0" />
    <inkscape:path-effect
       effect="skeletal"
       id="path-effect2409"
       is_visible="true"
       lpeversion="1"
       pattern="M 0,4.9921381 C 0,2.2364779 2.2364779,0 4.9921381,0 c 2.7556603,0 4.9921381,2.2364779 4.9921381,4.9921381 0,2.7556603 -2.2364778,4.9921381 -4.9921381,4.9921381 C 2.2364779,9.9842762 0,7.7477984 0,4.9921381 Z"
       copytype="single_stretched"
       prop_scale="0.302165"
       scale_y_rel="false"
       spacing="0"
       normal_offset="0"
       tang_offset="0"
       prop_units="false"
       vertical_pattern="false"
       hide_knot="false"
       fuse_tolerance="0" />
  </defs>
  <g
     inkscape:label="Layer 1"
     inkscape:groupmode="layer"
     id="layer1">
    <g
       id="g4043"
       style="stroke-width:4.23333328;stroke-dasharray:none;stroke:#000000;stroke-opacity:1">
      <path
         style="fill:#106600;fill-opacity:1;stroke:#000000;stroke-width:4.23333328;stroke-linecap:round;stroke-linejoin:round;stroke-dasharray:none;stroke-opacity:1"
         d="m 20.522092,89.71826 c 0.343722,0.245037 0.155863,1.088436 -0.08412,2.266546 -0.272356,1.33705 -0.506696,2.640611 -0.663334,4.613178 -10e-7,9e-6 -0.0018,0.02321 -0.0018,0.02322 -0.280208,3.699766 -0.356089,7.047176 -1.184685,7.129386 -0.828597,0.0822 -2.11574,-3.05772 -1.824321,-7.344746 0,10e-7 0.0019,-0.02691 0.0019,-0.02691 0.149831,-2.227828 0.878824,-4.059598 1.74252,-5.273819 0.85126,-1.196738 1.688308,-1.618929 2.013849,-1.386854 z"
         id="path4015"
         inkscape:path-effect="#path-effect4025"
         inkscape:original-d="m 20.522092,89.71826 c -2.950835,4.139247 -2.409625,9.237175 -1.933903,14.03232"
         class="UnoptimicedTransforms" />
      <path
         style="fill:#106600;fill-opacity:1;stroke:#000000;stroke-width:4.23333328;stroke-linecap:round;stroke-linejoin:round;stroke-dasharray:none;stroke-opacity:1"
         d="m 22.97976,99.181924 c 0.829305,0.07472 1.394066,1.337416 1.260627,2.818536 -0.133439,1.48112 -0.914797,2.62255 -1.744102,2.54783 -0.829305,-0.0747 -1.394066,-1.33742 -1.260627,-2.81853 0.133439,-1.48112 0.914797,-2.622551 1.744102,-2.547836 z"
         id="path4017"
         inkscape:path-effect="#path-effect4029"
         inkscape:original-d="m 22.97976,99.181924 c -0.161158,1.788786 -0.322316,3.577576 -0.483475,5.366366"
         class="UnoptimicedTransforms" />
      <path
         style="fill:#106600;fill-opacity:1;stroke:#000000;stroke-width:4.23333328;stroke-linecap:round;stroke-linejoin:round;stroke-dasharray:none;stroke-opacity:1"
         d="m 30.191604,91.168626 c 0.825232,0.111 1.079842,3.287476 0.568326,7.090348 -0.511516,3.802876 -1.596414,6.799176 -2.421646,6.688176 -0.825232,-0.111 -1.079842,-3.28748 -0.568326,-7.090351 0.511516,-3.802872 1.596414,-6.799173 2.421646,-6.688173 z"
         id="path4019"
         inkscape:path-effect="#path-effect4033"
         inkscape:original-d="m 30.191604,91.168626 c -0.617773,4.592839 -1.235546,9.185674 -1.853319,13.778514"
         class="UnoptimicedTransforms" />
      <path
         style="fill:#106600;fill-opacity:1;stroke:#000000;stroke-width:4.23333328;stroke-linecap:round;stroke-linejoin:round;stroke-dasharray:none;stroke-opacity:1"
         d="m 156.60148,92.084526 c 0.82732,0.09423 1.23119,2.520035 0.9015,5.414755 -0.32969,2.894719 -1.26872,5.167579 -2.09603,5.073359 -0.82732,-0.0942 -1.23118,-2.52004 -0.90149,-5.414758 0.32969,-2.894717 1.2687,-5.167581 2.09602,-5.073356 z"
         id="path4021"
         inkscape:path-effect="#path-effect4037"
         inkscape:original-d="m 156.60148,92.084526 c -0.39817,3.496033 -0.79635,6.992067 -1.19453,10.488104"
         class="UnoptimicedTransforms" />
    </g>
    <rect
       style="fill:#00472d;fill-opacity:1;stroke:#000000;stroke-width:2.11666664;stroke-linecap:round;stroke-linejoin:round;stroke-dasharray:none;stroke-opacity:1"
       id="rect346"
       width="296.61154"
       height="187.95494"
       x="-12.83911"
       y="95.006554" />
    <path
       style="fill:#106600;fill-opacity:1;stroke:none;stroke-width:7.9375;stroke-linecap:round;stroke-linejoin:round"
       d="m 20.522092,89.71826 c 0.343722,0.245037 0.155863,1.088436 -0.08412,2.266546 -0.272356,1.33705 -0.506696,2.640611 -0.663334,4.613178 -10e-7,9e-6 -0.0018,0.02321 -0.0018,0.02322 -0.280208,3.699766 -0.356089,7.047176 -1.184685,7.129386 -0.828597,0.0822 -2.11574,-3.05772 -1.824321,-7.344746 0,10e-7 0.0019,-0.02691 0.0019,-0.02691 0.149831,-2.227828 0.878824,-4.059598 1.74252,-5.273819 0.85126,-1.196738 1.688308,-1.618929 2.013849,-1.386854 z"
       id="path2407"
       inkscape:path-effect="#path-effect2409"
       inkscape:original-d="m 20.522092,89.71826 c -2.950835,4.139247 -2.409625,9.237175 -1.933903,14.03232"
       class="UnoptimicedTransforms" />
    <path
       style="fill:#106600;fill-opacity:1;stroke:none;stroke-width:7.9375;stroke-linecap:round;stroke-linejoin:round"
       d="m 22.97976,99.181924 c 0.829305,0.07472 1.394066,1.337416 1.260627,2.818536 -0.133439,1.48112 -0.914797,2.62255 -1.744102,2.54783 -0.829305,-0.0747 -1.394066,-1.33742 -1.260627,-2.81853 0.133439,-1.48112 0.914797,-2.622551 1.744102,-2.547836 z"
       id="path2411"
       inkscape:path-effect="#path-effect2413"
       inkscape:original-d="m 22.97976,99.181924 c -0.161158,1.788786 -0.322316,3.577576 -0.483475,5.366366"
       class="UnoptimicedTransforms" />
    <path
       style="fill:#106600;fill-opacity:1;stroke:none;stroke-width:7.9375;stroke-linecap:round;stroke-linejoin:round"
       d="m 30.191604,91.168626 c 0.825232,0.111 1.079842,3.287476 0.568326,7.090348 -0.511516,3.802876 -1.596414,6.799176 -2.421646,6.688176 -0.825232,-0.111 -1.079842,-3.28748 -0.568326,-7.090351 0.511516,-3.802872 1.596414,-6.799173 2.421646,-6.688173 z"
       id="path2415"
       inkscape:path-effect="#path-effect2417"
       inkscape:original-d="m 30.191604,91.168626 c -0.617773,4.592839 -1.235546,9.185674 -1.853319,13.778514"
       class="UnoptimicedTransforms" />
    <path
       style="fill:#106600;fill-opacity:1;stroke:none;stroke-width:7.9375;stroke-linecap:round;stroke-linejoin:round"
       d="m 64.185992,113.03451 c -0.05228,-0.0358 -0.377635,-0.30909 0.10795,-0.64134 10e-7,0 10e-7,0 10e-7,0 0.297707,-0.0501 0.639169,-0.007 0.769784,0.20478 0.344009,0.30304 0.577034,0.76375 0.685892,1.12345 0,0 0,0 0,0 0.402928,1.02011 0.583723,2.31898 0.60912,3.87085 0,0 0,0 0,0 0.0072,0.37685 0.0039,0.76423 -0.01057,1.15965 -0.0453,1.23623 -0.193978,2.38188 -0.40058,3.34292 -0.388444,1.79768 -0.965555,2.96564 -1.528521,2.89613 -0.509171,-0.0629 -0.889058,-1.2817 -1.031909,-3.06487 -0.07988,-0.96359 -0.09771,-2.0879 -0.05381,-3.28471 0.01403,-0.38243 0.03381,-0.75705 0.05853,-1.11952 0,0 0,0 0,0 0.08361,-1.31381 0.32083,-2.87936 0.452214,-3.58028 0,0 0,0 0,0 0.005,-0.37393 0.218655,-0.63374 0.238885,-0.68077 0.03989,0.0768 0.247907,0.0454 0.427234,0.0237 0,0 0,0 0,0 0.110039,-0.17541 -0.23245,-0.18719 -0.324214,-0.25001 z"
       id="path2435"
       inkscape:path-effect="#path-effect2437"
       inkscape:original-d="m 64.185992,113.03451 c 1.278761,-1.86787 0.481719,9.94249 0.233074,11.95644"
       class="UnoptimicedTransforms" />
    <path
       style="fill:#106600;fill-opacity:1;stroke:none;stroke-width:7.9375;stroke-linecap:round;stroke-linejoin:round"
       d="m 83.968496,127.69163 c 0.827166,0.0484 1.429794,1.38576 1.388214,2.97512 -0.04191,1.60183 -0.726376,2.91079 -1.563016,2.89823 -0.828671,-0.0125 -1.495234,-1.33684 -1.451931,-2.97746 0.04362,-1.65274 0.791553,-2.94473 1.626733,-2.89589 z"
       id="path2439"
       inkscape:path-effect="#path-effect2441"
       inkscape:original-d="m 83.968496,127.69163 c -0.19205,3.28422 -0.106539,1.32744 -0.174802,5.87334"
       class="UnoptimicedTransforms" />
    <path
       style="fill:#106600;fill-opacity:1;stroke:none;stroke-width:7.9375;stroke-linecap:round;stroke-linejoin:round"
       d="m 103.13918,112.1168 c 0.82885,0.0796 1.35143,1.70658 1.16648,3.63156 -0.18495,1.92499 -1.00773,3.42267 -1.83658,3.34304 -0.82885,-0.0796 -1.35144,-1.70657 -1.16649,-3.63156 0.18495,-1.925 1.00774,-3.42267 1.83659,-3.34304 z"
       id="path2443"
       inkscape:path-effect="#path-effect2445"
       inkscape:original-d="m 103.13918,112.1168 c -0.22337,2.32486 -0.44674,4.64973 -0.6701,6.97459"
       class="UnoptimicedTransforms" />
    <path
       style="fill:#106600;fill-opacity:1;stroke:none;stroke-width:7.9375;stroke-linecap:round;stroke-linejoin:round"
       d="m 124.90285,135.32173 c 0.83224,0.0264 1.4359,2.3091 1.34745,5.09527 -0.0884,2.78617 -0.83568,5.02596 -1.66793,4.99954 -0.83224,-0.0264 -1.4359,-2.3091 -1.34745,-5.09527 0.0884,-2.78617 0.83568,-5.02596 1.66793,-4.99954 z"
       id="path2447"
       inkscape:path-effect="#path-effect2449"
       inkscape:original-d="m 124.90285,135.32173 c -0.10683,3.36494 -0.21365,6.72987 -0.32048,10.0948"
       class="UnoptimicedTransforms"
       transform="translate(-0.28904276,4.9619677)" />
    <path
       style="fill:#106600;fill-opacity:1;stroke:none;stroke-width:7.9375;stroke-linecap:round;stroke-linejoin:round"
       d="m 156.60148,92.084526 c 0.82732,0.09423 1.23119,2.520035 0.9015,5.414755 -0.32969,2.894719 -1.26872,5.167579 -2.09603,5.073359 -0.82732,-0.0942 -1.23118,-2.52004 -0.90149,-5.414758 0.32969,-2.894717 1.2687,-5.167581 2.09602,-5.073356 z"
       id="path2451"
       inkscape:path-effect="#path-effect2453"
       inkscape:original-d="m 156.60148,92.084526 c -0.39817,3.496033 -0.79635,6.992067 -1.19453,10.488104"
       class="UnoptimicedTransforms" />
    <path
       style="fill:#106600;fill-opacity:1;stroke:none;stroke-width:7.9375;stroke-linecap:round;stroke-linejoin:round"
       d="m 168.40106,101.8909 c 0.82639,0.10203 1.23603,2.29923 0.91439,4.90448 -0.32164,2.60524 -1.25338,4.63684 -2.07977,4.53481 -0.82639,-0.10202 -1.23604,-2.29923 -0.9144,-4.90447 0.32165,-2.60525 1.25339,-4.63685 2.07978,-4.53482 z"
       id="path2455"
       inkscape:path-effect="#path-effect2457"
       inkscape:original-d="m 168.40106,101.8909 c -0.38847,3.14643 -0.77692,6.29286 -1.16538,9.43929"
       class="UnoptimicedTransforms" />
    <path
       style="fill:#106600;fill-opacity:1;stroke:none;stroke-width:7.9375;stroke-linecap:round;stroke-linejoin:round"
       d="m 172.15945,107.79046 c 0.81819,0.15459 1.20812,1.73077 0.87039,3.51826 -0.33773,1.78748 -1.27586,3.11273 -2.09405,2.95814 -0.81819,-0.15458 -1.20813,-1.73076 -0.8704,-3.51825 0.33773,-1.78749 1.27587,-3.11274 2.09406,-2.95815 z"
       id="path2459"
       inkscape:path-effect="#path-effect2461"
       inkscape:original-d="m 172.15945,107.79046 c -0.40789,2.1588 -0.81578,4.3176 -1.22366,6.4764"
       class="UnoptimicedTransforms" />
    <path
       style="fill:#106600;fill-opacity:1;stroke:none;stroke-width:7.9375;stroke-linecap:round;stroke-linejoin:round"
       d="m 176.03437,108.41974 c 0.81905,0.18202 1.13702,1.82213 0.67137,3.6551 -0.46141,1.81625 -1.50235,3.10392 -2.30292,2.89998 -0.81319,-0.20717 -1.07796,-1.84511 -0.62082,-3.64305 0.4528,-1.78083 1.44608,-3.09121 2.25237,-2.91203 z"
       id="path2463"
       inkscape:path-effect="#path-effect2465"
       inkscape:original-d="m 176.03437,108.41974 c -0.66332,2.98483 -0.16275,0.78949 -1.63155,6.55507"
       class="UnoptimicedTransforms" />
    <path
       style="fill:#106600;fill-opacity:1;stroke:none;stroke-width:7.9375;stroke-linecap:round;stroke-linejoin:round"
       d="m 214.92032,113.94945 c 0.83019,0.0641 1.17766,4.33914 0.7756,9.54239 -0.40206,5.20326 -1.40215,9.37412 -2.23234,9.30997 -0.83019,-0.0641 -1.17766,-4.33914 -0.7756,-9.54239 0.40206,-5.20325 1.40215,-9.37412 2.23234,-9.30997 z"
       id="path2467"
       inkscape:path-effect="#path-effect2469"
       inkscape:original-d="m 214.92032,113.94945 c -0.48558,6.28412 -0.97116,12.56824 -1.45674,18.85236"
       class="UnoptimicedTransforms" />
    <path
       style="fill:#106600;fill-opacity:1;stroke:none;stroke-width:7.9375;stroke-linecap:round;stroke-linejoin:round"
       d="m 239.73176,121.4558 c 0.79108,0.0834 1.06897,4.45616 0.77176,9.76842 -0.0668,1.19301 -0.1598,2.33087 -0.277,3.38718 -0.0935,0.90353 -0.32059,1.72935 -0.63781,2.45237 -1.10325,2.41236 -2.20957,3.64456 -2.68302,3.45416 -0.55623,-0.22367 -0.15753,-1.87106 0.34248,-4.24141 0.11158,-0.55225 0.16731,-1.15343 0.15576,-1.81331 -0.006,-1.05915 0.0205,-2.21069 0.0877,-3.40772 0.30126,-5.37063 1.41207,-9.68697 2.24015,-9.59969 z"
       id="path2471"
       inkscape:path-effect="#path-effect2473"
       inkscape:original-d="m 239.73176,121.4558 c -1.82263,17.29269 0.32056,11.23727 -2.82607,19.06213"
       class="UnoptimicedTransforms" />
    <path
       style="fill:#106600;fill-opacity:1;stroke:none;stroke-width:7.9375;stroke-linecap:round;stroke-linejoin:round"
       d="m 234.74972,107.48041 c 0.84242,0.11701 1.26909,1.74879 0.84124,3.62662 -0.41669,1.82888 -1.44667,3.10888 -2.23971,2.92845 -0.83041,-0.18894 -1.10872,-1.82046 -0.69992,-3.60078 0.39683,-1.72817 1.29429,-3.06598 2.09839,-2.95429 z"
       id="path2475"
       inkscape:path-effect="#path-effect2477"
       inkscape:original-d="m 234.74972,107.48041 c -0.40463,2.91323 -0.0674,0.70464 -1.39847,6.55506"
       class="UnoptimicedTransforms" />
    <path
       style="fill:#106600;fill-opacity:1;stroke:none;stroke-width:7.9375;stroke-linecap:round;stroke-linejoin:round"
       d="m 247.19026,106.11695 c 0.78993,0.26332 1.29399,0.88816 1.12513,1.39474 -0.16887,0.50659 -0.94703,0.70401 -1.73696,0.44068 -0.78993,-0.26333 -1.29398,-0.88817 -1.12512,-1.39473 0.16886,-0.50657 0.94702,-0.70401 1.73695,-0.44069 z"
       id="path2479"
       inkscape:path-effect="#path-effect2481"
       inkscape:original-d="m 247.19026,106.11695 c -0.20394,0.61181 -0.40788,1.22362 -0.61183,1.83542"
       class="UnoptimicedTransforms" />
    <path
       style="fill:#106600;fill-opacity:1;stroke:none;stroke-width:7.9375;stroke-linecap:round;stroke-linejoin:round"
       d="m 198.06572,122.25668 c 0.82481,0.1141 1.28198,2.3892 0.86268,5.2474 -0.039,0.26595 -0.0854,0.52682 -0.13901,0.78165 0,0 0,0 0,0 -0.57427,2.68648 -1.86142,4.11346 -2.58829,3.90843 -0.87913,-0.24797 -0.58452,-2.22358 -0.35398,-4.3977 0,0 0,0 0,0 0.0283,-0.23741 0.0606,-0.48191 0.097,-0.73038 0.39619,-2.69791 1.2297,-4.93278 2.12156,-4.8094 z"
       id="path2483"
       inkscape:path-effect="#path-effect2485"
       inkscape:original-d="m 198.06572,122.25668 c -1.06495,7.69826 -0.30675,4.41435 -1.86462,9.93748"
       class="UnoptimicedTransforms" />
    <path
       style="fill:#106600;fill-opacity:1;stroke:none;stroke-width:7.9375;stroke-linecap:round;stroke-linejoin:round"
       d="m 178.74937,142.0792 c 0.78726,0.26688 0.95161,1.89284 0.37666,3.63105 -0.57614,1.7418 -1.68225,2.94919 -2.47436,2.68804 -0.78948,-0.26028 -0.96796,-1.88789 -0.38988,-3.63547 0.57925,-1.75115 1.69769,-2.95139 2.48758,-2.68362 z"
       id="path2487"
       inkscape:path-effect="#path-effect2489"
       inkscape:original-d="m 178.74937,142.0792 c -1.06215,3.13324 -0.35394,1.02989 -2.0977,6.31908"
       class="UnoptimicedTransforms"
       transform="translate(-0.28904276,4.9619677)" />
    <path
       style="fill:#106600;fill-opacity:1;stroke:none;stroke-width:7.9375;stroke-linecap:round;stroke-linejoin:round"
       d="m 215.43004,149.68307 c 0.78962,0.26424 0.92143,1.99989 0.29422,3.87422 -0.62722,1.87433 -1.77712,3.18107 -2.56674,2.91684 -0.78963,-0.26424 -0.92144,-1.99989 -0.29422,-3.87422 0.62721,-1.87433 1.77711,-3.18108 2.56674,-2.91684 z"
       id="path2491"
       inkscape:path-effect="#path-effect2493"
       inkscape:original-d="m 215.43004,149.68307 c -0.75751,2.26368 -1.51501,4.52736 -2.27252,6.79105"
       class="UnoptimicedTransforms"
       transform="translate(-0.28904276,4.9619677)" />
    <path
       style="fill:#106600;fill-opacity:1;stroke:none;stroke-width:7.9375;stroke-linecap:round;stroke-linejoin:round"
       d="m 250.71225,149.05379 c 0.77861,0.29511 0.64696,2.54918 -0.29385,5.0314 -0.94082,2.48222 -2.3363,4.25727 -3.11491,3.96215 -0.77862,-0.29511 -0.64697,-2.54917 0.29384,-5.0314 0.94082,-2.48222 2.33631,-4.25726 3.11492,-3.96215 z"
       id="path2495"
       inkscape:path-effect="#path-effect2497"
       inkscape:original-d="m 250.71225,149.05379 c -1.13626,2.99785 -2.27251,5.9957 -3.40876,8.99355"
       class="UnoptimicedTransforms"
       transform="translate(-0.28904276,4.9619677)" />
    <path
       style="fill:#106600;fill-opacity:1;stroke:none;stroke-width:7.9375;stroke-linecap:round;stroke-linejoin:round"
       d="m 158.96686,126.87145 c 0.71022,0.0282 1.41756,2.21537 1.17248,5.46867 0,0 0,0 0,0 -0.0394,0.52577 -0.0973,1.07026 -0.17383,1.62817 -0.52248,3.80796 -1.6297,6.7501 -2.45539,6.64258 -0.82569,-0.10751 -1.0487,-3.29778 -0.53341,-7.0527 0.0753,-0.54896 0.16087,-1.08201 0.25286,-1.58863 0,0 1e-5,0 1e-5,0 0.52178,-2.76811 1.02706,-5.12628 1.73728,-5.09809 z"
       id="path2499"
       inkscape:path-effect="#path-effect2501"
       inkscape:original-d="m 158.96686,126.87145 c -0.27989,7.0527 0.0124,2.45651 -1.45674,13.73942"
       class="UnoptimicedTransforms" />
    <path
       style="fill:#106600;fill-opacity:1;stroke:none;stroke-width:7.9375;stroke-linecap:round;stroke-linejoin:round"
       d="m 92.425318,152.52885 c 0.588572,-0.20338 1.599535,0.87537 2.473607,2.61307 0.229714,0.39044 0.493847,1.03681 0.526514,1.97959 -0.0091,0.15167 -0.02382,0.29767 -0.04325,0.43786 -0.09768,0.70488 -0.307747,1.22053 -0.475222,1.56287 0,0 0,0 0,0 -0.818245,1.93747 -1.79063,3.28662 -2.452512,3.10811 -0.673171,-0.18155 -0.821742,-1.87213 -0.310111,-4.01135 0,0 0,0 0,0 0.09932,-0.47723 0.236362,-0.84463 0.2663,-1.06813 0.0059,-0.0442 0.0074,-0.0824 0.0036,-0.11539 0.06261,-0.0974 -0.07219,-0.42523 -0.165074,-0.90357 -0.474786,-1.88761 -0.459583,-3.38339 0.176156,-3.60306 z"
       id="path2503"
       inkscape:path-effect="#path-effect2505"
       inkscape:original-d="m 92.425318,152.52885 c 2.094902,6.06265 1.880769,2.8359 0.02914,9.70149"
       class="UnoptimicedTransforms"
       transform="translate(-0.28904276,4.9619677)" />
    <path
       style="fill:#106600;fill-opacity:1;stroke:none;stroke-width:7.9375;stroke-linecap:round;stroke-linejoin:round"
       d="m 46.950455,145.63583 c 0.828251,0.0856 1.291616,2.17552 1.034297,4.66498 -0.257319,2.48946 -1.138361,4.4404 -1.966612,4.35479 -0.828252,-0.0856 -1.291617,-2.17552 -1.034298,-4.66498 0.257319,-2.48945 1.138362,-4.4404 1.966613,-4.35479 z"
       id="path2507"
       inkscape:path-effect="#path-effect2509"
       inkscape:original-d="m 46.950455,145.63583 c -0.310772,3.00659 -0.621544,6.01318 -0.932315,9.01977"
       class="UnoptimicedTransforms"
       transform="translate(-0.28904276,4.9619677)" />
    <path
       style="fill:#106600;fill-opacity:1;stroke:none;stroke-width:7.9375;stroke-linecap:round;stroke-linejoin:round"
       d="m 26.643518,137.9533 c 0.807516,0.23263 0.823764,2.57522 -0.0049,5.21842 -0.824485,2.62988 -2.150472,4.54582 -2.937715,4.29953 -0.802089,-0.25093 -0.761833,-2.58437 0.05909,-5.20213 0.816641,-2.60411 2.091002,-4.54413 2.883522,-4.31582 z"
       id="path2511"
       inkscape:path-effect="#path-effect2513"
       inkscape:original-d="m 26.643518,137.9533 c -1.191224,4.13507 -0.261238,0.94714 -2.94261,9.51795"
       class="UnoptimicedTransforms"
       transform="translate(-0.28904276,4.9619677)" />
    <path
       style="fill:#106600;fill-opacity:1;stroke:none;stroke-width:7.9375;stroke-linecap:round;stroke-linejoin:round"
       d="m 21.778011,125.26269 c 0.618224,0 1.415028,1.43802 1.169881,4.07059 0,0 0,0 0,0 -0.0685,0.77375 -0.182794,1.62255 -0.342154,2.50482 -0.617757,3.42012 -1.692061,6.13375 -2.517545,6.01031 -0.8211,-0.12277 -1.082037,-3.05304 -0.451136,-6.54648 0.162149,-0.89786 0.366556,-1.74106 0.596116,-2.49723 0,0 1e-6,-1e-5 1e-6,-1e-5 0.644544,-1.86789 0.740475,-3.542 1.544837,-3.542 z"
       id="path2515"
       inkscape:path-effect="#path-effect2517"
       inkscape:original-d="m 21.778011,125.26269 c 0,5.09365 0.06333,0.86124 -1.689817,12.58572"
       class="UnoptimicedTransforms" />
  </g>
</svg>
