<?xml version="1.0" encoding="UTF-8" standalone="no"?>
<!-- Created with Inkscape (http://www.inkscape.org/) -->

<svg
   width="1024"
   height="1024"
   viewBox="0 0 270.93332 270.93334"
   version="1.1"
   id="svg5"
   inkscape:version="1.2.2 (b0a8486541, 2022-12-01)"
   sodipodi:docname="trampoline (copy).svg"
   xmlns:inkscape="http://www.inkscape.org/namespaces/inkscape"
   xmlns:sodipodi="http://sodipodi.sourceforge.net/DTD/sodipodi-0.dtd"
   xmlns="http://www.w3.org/2000/svg"
   xmlns:svg="http://www.w3.org/2000/svg">
  <sodipodi:namedview
     id="namedview7"
     pagecolor="#505050"
     bordercolor="#eeeeee"
     borderopacity="1"
     inkscape:showpageshadow="0"
     inkscape:pageopacity="0"
     inkscape:pagecheckerboard="0"
     inkscape:deskcolor="#505050"
     inkscape:document-units="px"
     showgrid="false"
     inkscape:zoom="0.63278728"
     inkscape:cx="354.77957"
     inkscape:cy="564.96079"
     inkscape:window-width="1920"
     inkscape:window-height="1011"
     inkscape:window-x="0"
     inkscape:window-y="32"
     inkscape:window-maximized="1"
     inkscape:current-layer="layer1" />
  <defs
     id="defs2" />
  <g
     inkscape:label="Layer 1"
     inkscape:groupmode="layer"
     id="layer1">
    <path
       style="fill:#292929;stroke:#000000;stroke-width:10.5833;stroke-linecap:round;stroke-linejoin:round;paint-order:stroke fill markers"
       d="M 15.307529,150.89451 C 28.090301,106.0005 46.130422,50.815045 75.240912,9.7078795 87.022544,55.105735 93.523454,105.94718 99.809204,154.26793 c -9.09037,2.68329 -83.324817,6.82643 -84.501675,-3.37342 z"
       id="path356-35"
       sodipodi:nodetypes="cccc" />
    <path
       style="fill:#292929;stroke:#000000;stroke-width:10.5833;stroke-linecap:round;stroke-linejoin:round;paint-order:stroke fill markers"
       d="M 66.376023,165.0629 C 79.158795,120.16889 97.198915,64.98343 126.3094,23.87626 c 11.78163,45.39786 18.28254,96.23931 24.56829,144.56006 -9.09036,2.68329 -83.324809,6.82643 -84.501667,-3.37342 z"
       id="path356-6"
       sodipodi:nodetypes="cccc" />
    <path
       style="fill:#292929;stroke:#000000;stroke-width:10.5833;stroke-linecap:round;stroke-linejoin:round;paint-order:stroke fill markers"
       d="m 175.66225,176.15772 c 12.78277,-44.89401 30.82289,-100.079468 59.93338,-141.186638 11.78163,45.39786 18.28254,96.239308 24.56829,144.560058 -9.09036,2.68329 -83.32481,6.82643 -84.50167,-3.37342 z"
       id="path356-7"
       sodipodi:nodetypes="cccc" />
    <path
       style="fill:#292929;stroke:#000000;stroke-width:10.5833;stroke-linecap:round;stroke-linejoin:round;paint-order:stroke fill markers"
       d="M 13.173447,248.89227 C 25.956219,203.99826 43.99634,148.8128 73.10683,107.70563 c 11.781631,45.39786 18.28254,96.23931 24.568289,144.56006 -9.090363,2.68329 -83.324814,6.82643 -84.501672,-3.37342 z"
       id="path356"
       sodipodi:nodetypes="cccc" />
    <path
       style="fill:#292929;stroke:#000000;stroke-width:10.5833;stroke-linecap:round;stroke-linejoin:round;paint-order:stroke fill markers"
       d="m 104.99492,210.76054 c 12.78277,-44.89401 30.82289,-100.07947 59.93338,-141.18664 11.78163,45.39786 18.28254,96.23931 24.56829,144.56006 -9.09036,2.68329 -83.32481,6.82643 -84.50167,-3.37342 z"
       id="path356-3"
       sodipodi:nodetypes="cccc" />
    <path
       style="fill:#292929;stroke:#000000;stroke-width:10.5833;stroke-linecap:round;stroke-linejoin:round;paint-order:stroke fill markers"
       d="m 173.21249,252.17903 c 12.78277,-44.89401 30.82289,-100.07947 59.93338,-141.18664 11.78163,45.39786 18.28254,96.23931 24.56829,144.56006 -9.09036,2.68329 -83.32481,6.82643 -84.50167,-3.37342 z"
       id="path356-5"
       sodipodi:nodetypes="cccc" />
  </g>
</svg>
